<?xml version="1.0" standalone="no"?>
<!DOCTYPE svg PUBLIC "-//W3C//DTD SVG 20010904//EN"
 "http://www.w3.org/TR/2001/REC-SVG-20010904/DTD/svg10.dtd">
<svg version="1.0" xmlns="http://www.w3.org/2000/svg"
 width="244.000000pt" height="244.000000pt" viewBox="0 0 244.000000 244.000000"
 preserveAspectRatio="xMidYMid meet">
<metadata>
Created by potrace 1.11, written by Peter Selinger 2001-2013
</metadata>
<g transform="translate(0.000000,244.000000) scale(0.100000,-0.100000)"
fill="#000000" stroke="none">
<path d="M1090 2394 c-241 -37 -418 -111 -598 -248 -8 -6 -54 -49 -102 -96
-79 -78 -156 -177 -187 -240 -7 -14 -17 -32 -23 -40 -11 -16 -53 -109 -56
-125 -1 -5 -8 -23 -15 -40 -6 -16 -13 -34 -15 -40 -26 -107 -33 -149 -27 -158
4 -7 0 -8 -12 -3 -14 5 -15 3 -7 -6 15 -19 15 -30 0 -39 -11 -7 -10 -9 1 -9
11 0 9 -5 -5 -22 -10 -12 -14 -19 -8 -15 7 4 11 -5 12 -23 0 -17 -5 -30 -11
-30 -8 0 -8 -3 -2 -8 15 -11 19 -46 4 -36 -8 5 -9 3 -3 -7 14 -24 16 -51 2
-43 -10 6 -10 5 -1 -7 18 -22 20 -63 3 -77 -13 -12 -13 -13 2 -8 14 4 17 -1
14 -29 -1 -19 1 -35 6 -35 13 0 9 -28 -4 -33 -8 -3 -6 -6 5 -6 9 -1 17 -6 17
-12 0 -5 -4 -7 -10 -4 -6 3 -7 -1 -4 -9 3 -9 10 -16 16 -16 5 0 6 -6 1 -12
-11 -19 -13 -39 -2 -32 5 3 6 10 3 16 -4 7 -2 8 5 4 6 -4 9 -12 6 -17 -4 -5
-3 -15 2 -21 4 -7 9 -21 10 -31 2 -10 10 -32 20 -50 13 -26 13 -30 2 -22 -11
7 -11 6 1 -5 8 -9 16 -22 18 -30 2 -8 9 -18 15 -22 9 -6 8 -8 -1 -8 -7 0 -10
-5 -7 -10 4 -6 11 -7 17 -4 5 4 4 -4 -3 -17 -11 -21 -10 -22 3 -12 19 17 31 4
15 -15 -10 -13 -9 -15 3 -10 11 4 16 -1 17 -14 1 -11 10 -26 20 -33 10 -7 19
-18 19 -24 1 -6 2 -16 3 -22 0 -5 6 -7 13 -3 8 5 9 2 5 -9 -4 -11 -1 -17 8
-17 8 0 15 -7 15 -16 0 -9 5 -12 13 -8 9 6 9 5 0 -7 -10 -12 -8 -17 10 -29 21
-13 21 -12 7 6 -14 17 -14 18 2 6 10 -8 14 -20 11 -29 -5 -12 -3 -14 7 -8 10
6 12 4 7 -9 -4 -10 -3 -15 3 -11 15 9 60 -25 53 -41 -3 -8 0 -14 7 -14 6 0 8
-5 4 -12 -5 -8 0 -7 11 2 11 9 16 10 11 3 -6 -12 4 -17 26 -14 4 0 5 -8 3 -19
-4 -19 15 -27 48 -21 5 1 6 -3 3 -8 -4 -5 3 -12 14 -16 11 -3 20 -12 20 -19 0
-7 11 -23 24 -35 18 -17 26 -19 31 -10 6 8 4 10 -5 4 -9 -5 -11 -4 -6 4 10 16
26 4 19 -14 -4 -11 -1 -13 11 -9 10 4 23 -3 36 -17 10 -13 19 -21 20 -16 0 4
14 0 30 -8 17 -9 35 -13 40 -10 5 3 11 1 15 -5 4 -6 12 -7 18 -3 7 4 6 -1 -2
-10 -12 -15 -12 -17 3 -11 9 4 16 3 14 -2 -2 -5 1 -9 7 -9 5 0 9 7 7 15 -1 8
5 3 13 -12 16 -29 31 -38 22 -14 -4 10 -1 13 8 9 8 -3 12 -10 9 -15 -4 -6 4
-5 16 2 20 11 22 10 17 -3 -4 -12 -2 -14 10 -10 12 5 14 3 8 -7 -5 -8 -4 -11
3 -6 5 3 13 0 15 -6 4 -10 6 -10 6 0 1 7 6 10 13 6 7 -4 8 -3 4 4 -4 7 -2 12
3 12 10 0 15 -14 12 -32 -2 -17 10 -7 19 15 9 22 9 22 10 -3 1 -22 2 -23 9 -6
7 19 8 19 31 -4 15 -15 21 -18 17 -7 -4 12 -2 14 10 10 12 -5 14 -3 8 8 -7 11
-6 12 7 2 8 -7 19 -9 23 -5 5 4 5 1 1 -6 -9 -16 24 -13 37 3 5 6 7 3 3 -7 -3
-10 0 -20 6 -24 6 -4 8 -3 5 3 -4 6 4 13 18 16 14 2 28 0 32 -6 3 -6 1 -7 -5
-3 -7 4 -12 2 -12 -4 0 -7 7 -9 16 -6 9 3 18 6 21 6 3 0 0 8 -8 18 -12 16 -12
16 6 0 17 -16 19 -16 31 0 12 15 13 15 9 -5 -3 -16 0 -20 11 -16 7 3 11 10 7
16 -3 5 -1 7 5 3 5 -3 12 -3 15 1 2 5 2 3 1 -4 -2 -7 2 -15 8 -19 7 -4 8 -3 4
4 -4 7 -1 12 9 12 9 0 14 4 11 8 -3 5 1 9 9 9 8 0 12 -4 9 -9 -3 -4 2 -8 11
-8 12 0 15 5 11 18 -4 10 2 7 14 -8 12 -15 18 -18 14 -8 -7 22 4 24 60 14 15
-3 24 -1 21 5 -4 5 -11 6 -17 3 -7 -5 -8 -2 -4 5 5 7 11 10 14 7 3 -3 11 -1
19 6 11 9 12 7 6 -8 -6 -17 -5 -17 10 -5 9 7 14 18 10 24 -3 6 -1 7 5 3 6 -4
8 -14 5 -23 -4 -11 -3 -14 5 -9 7 4 12 14 12 22 0 8 5 12 10 9 6 -4 7 -11 4
-17 -4 -7 -2 -8 5 -4 6 4 8 12 5 18 -4 6 1 8 16 3 18 -6 22 -4 17 7 -3 8 1 15
9 15 7 0 10 -5 7 -11 -4 -6 1 -5 10 3 9 7 23 11 31 8 8 -3 17 -3 21 1 4 4 12
7 18 7 7 0 12 6 12 14 0 8 6 16 14 19 9 3 11 0 6 -8 -5 -9 -4 -11 3 -6 7 4 12
14 12 22 0 8 5 12 10 9 6 -3 10 -2 10 4 0 6 7 7 17 4 11 -4 14 -3 9 5 -4 7 -2
12 4 12 6 0 8 5 4 12 -4 7 -3 8 5 4 6 -4 9 -11 7 -15 -3 -4 1 -8 8 -8 8 0 12
6 9 12 -2 7 3 15 11 18 11 4 13 1 10 -11 -5 -15 -4 -15 6 1 6 9 8 22 4 29 -4
6 -3 8 3 5 6 -4 13 -1 16 7 3 8 16 13 29 12 15 -2 37 9 59 27 27 24 28 27 7
13 -16 -9 -28 -13 -28 -8 0 5 11 15 25 22 13 7 22 17 19 22 -3 4 2 9 10 9 30
3 34 4 43 13 5 5 3 6 -4 2 -7 -4 -13 -2 -13 3 0 10 21 16 42 12 4 0 4 7 1 16
-5 12 -3 14 8 8 11 -7 12 -6 2 6 -10 12 -6 18 18 34 16 11 29 26 29 33 0 6 7
12 15 12 8 0 15 5 15 11 0 5 -5 7 -12 3 -7 -4 -8 -3 -4 5 6 9 11 9 22 0 12
-10 13 -9 8 6 -6 14 -4 16 7 10 12 -7 12 -6 1 7 -11 14 -9 19 14 37 15 12 23
21 18 21 -5 0 -1 5 8 11 9 5 15 16 12 23 -3 8 0 17 7 22 8 5 10 3 4 -7 -4 -8
4 0 18 16 20 24 23 33 14 44 -10 12 -9 13 7 8 16 -6 17 -5 6 8 -9 11 -9 15 -1
15 7 0 9 5 6 10 -3 6 -2 10 4 10 6 0 7 7 4 17 -4 10 -2 14 4 10 6 -4 14 0 17
9 4 10 2 13 -7 8 -8 -6 -8 -3 1 9 8 9 10 22 6 28 -4 7 -3 9 3 6 6 -4 14 0 17
9 3 9 2 12 -5 8 -6 -3 -5 3 3 15 7 12 17 21 23 21 5 0 4 4 -4 9 -12 7 -12 13
-3 24 7 7 9 17 5 20 -3 4 -1 7 5 7 6 0 9 7 6 15 -3 8 -2 20 3 27 4 7 9 24 9
38 4 73 9 100 19 100 5 0 3 5 -5 10 -13 9 -13 11 0 20 8 5 11 10 6 10 -5 0 -3
7 4 16 8 8 9 14 4 13 -21 -4 -26 2 -14 16 10 12 10 15 0 15 -10 0 -10 3 0 15
10 12 10 15 -1 15 -12 0 -12 2 0 9 10 6 10 10 1 16 -9 6 -9 10 1 16 8 5 9 9 3
9 -9 0 -14 30 -18 120 0 14 -4 27 -8 30 -3 3 -8 21 -10 40 -1 19 -7 38 -11 41
-4 3 -9 22 -10 41 -1 20 -5 34 -8 32 -6 -3 -29 62 -28 80 0 5 -3 12 -8 15 -5
3 -17 24 -27 46 -11 22 -39 72 -64 110 -174 272 -441 454 -772 525 -54 12
-300 21 -350 14z m1190 -1718 c0 -2 -7 -9 -15 -16 -13 -11 -14 -10 -9 4 5 14
24 23 24 12z m-330 -402 c0 -8 -19 -13 -24 -6 -3 5 1 9 9 9 8 0 15 -2 15 -3z
m-1367 -44 c3 -11 1 -18 -4 -14 -5 3 -9 12 -9 20 0 20 7 17 13 -6z m1118 -97
c7 -10 9 -15 5 -11 -5 4 -15 3 -21 -2 -9 -8 -14 -6 -18 4 -4 11 -1 13 10 9 11
-4 14 -2 9 5 -11 18 0 14 15 -5z"/>
<path d="M223 565 c0 -8 4 -12 9 -9 5 3 6 10 3 15 -9 13 -12 11 -12 -6z"/>
<path d="M2185 540 c-8 -13 5 -13 25 0 13 8 13 10 -2 10 -9 0 -20 -4 -23 -10z"/>
<path d="M2101 426 c-10 -11 -9 -14 1 -12 14 2 23 15 15 22 -2 2 -10 -2 -16
-10z"/>
<path d="M354 388 c-4 -6 -3 -8 4 -4 5 3 12 1 14 -5 2 -7 9 -10 16 -8 8 3 5 9
-7 16 -15 9 -22 10 -27 1z"/>
<path d="M496 265 c4 -8 12 -15 19 -15 7 0 16 -6 18 -12 4 -8 6 -9 6 -2 1 7
-10 19 -24 28 -21 14 -24 14 -19 1z"/>
<path d="M1890 238 c0 -4 4 -8 9 -8 6 0 12 4 15 8 3 5 -1 9 -9 9 -8 0 -15 -4
-15 -9z"/>
<path d="M1075 30 c-3 -5 -1 -10 4 -10 6 0 11 5 11 10 0 6 -2 10 -4 10 -3 0
-8 -4 -11 -10z"/>
</g>
</svg>
